<?xml version="1.0" encoding="utf-8"?>
<!-- Generator: Adobe Illustrator 23.1.1, SVG Export Plug-In . SVG Version: 6.00 Build 0)  -->
<svg version="1.1" id="Layer_1" xmlns="http://www.w3.org/2000/svg" xmlns:xlink="http://www.w3.org/1999/xlink" x="0px" y="0px"
	 viewBox="0 0 32 32" enable-background="new 0 0 32 32" xml:space="preserve">
<rect fill="#FFFFFF" width="32" height="32"/>
<g>
	<path fill="#171717" d="M10.5,2.4c-2.8,0-3.1,0-4.2,0.1S4.4,2.7,3.8,3C3.1,3.2,2.5,3.6,1.9,4.2C1.4,4.7,1,5.3,0.8,6
		C0.5,6.6,0.3,7.4,0.3,8.5c-0.1,1.1-0.1,1.4-0.1,4.2s0,3.1,0.1,4.2c0,1.1,0.2,1.8,0.5,2.5s0.6,1.2,1.2,1.8c0.6,0.6,1.1,0.9,1.8,1.2
		c0.7,0.3,1.4,0.4,2.5,0.5S7.7,23,10.5,23s3.1,0,4.2-0.1c1.1,0,1.8-0.2,2.5-0.5s1.2-0.6,1.8-1.2c0.6-0.6,0.9-1.1,1.2-1.8
		c0.3-0.7,0.4-1.4,0.5-2.5s0.1-1.4,0.1-4.2s0-3.1-0.1-4.2c0-1.1-0.2-1.8-0.5-2.5S19.6,4.8,19,4.2S17.9,3.3,17.2,3
		c-0.7-0.3-1.4-0.4-2.5-0.5C13.6,2.5,13.3,2.4,10.5,2.4L10.5,2.4L10.5,2.4z M10.5,4.3c2.7,0,3.1,0,4.2,0.1c1,0,1.5,0.2,1.9,0.4
		c0.5,0.2,0.8,0.4,1.2,0.8c0.4,0.4,0.6,0.7,0.8,1.2c0.1,0.4,0.3,0.9,0.4,1.9c0,1.1,0.1,1.4,0.1,4.2c0,2.7,0,3.1-0.1,4.2
		c0,1-0.2,1.5-0.4,1.9c-0.2,0.5-0.4,0.8-0.8,1.2c-0.4,0.4-0.7,0.6-1.2,0.8c-0.4,0.1-0.9,0.3-1.9,0.4c-1.1,0-1.4,0.1-4.2,0.1
		c-2.7,0-3.1,0-4.2-0.1c-1,0-1.5-0.2-1.9-0.4c-0.4-0.5-0.8-0.7-1.1-1c-0.4-0.4-0.6-0.7-0.8-1.2c-0.1-0.4-0.3-0.9-0.4-1.9
		c0-1.1-0.1-1.4-0.1-4.2C2,10,2,9.6,2.1,8.5c0-1,0.2-1.5,0.4-1.9c0.2-0.5,0.4-0.8,0.8-1.2C3.6,5.1,4,4.9,4.4,4.7
		c0.4-0.1,0.9-0.3,1.9-0.4C7.4,4.3,7.8,4.3,10.5,4.3"/>
	<path fill="#171717" d="M10.5,16.1c-1.9,0-3.4-1.5-3.4-3.4s1.5-3.4,3.4-3.4s3.4,1.5,3.4,3.4S12.4,16.1,10.5,16.1L10.5,16.1z
		 M10.5,7.4c-2.9,0-5.3,2.4-5.3,5.3S7.6,18,10.5,18s5.3-2.4,5.3-5.3S13.4,7.4,10.5,7.4L10.5,7.4z"/>
	<path fill="#171717" d="M17.2,7.2c0,0.7-0.6,1.2-1.2,1.2c-0.7,0-1.2-0.6-1.2-1.2S15.3,6,16,6C16.7,6,17.2,6.6,17.2,7.2L17.2,7.2z"
		/>
</g>
</svg>
