<?xml version="1.0" encoding="utf-8"?>
<!-- Generator: Adobe Illustrator 23.1.1, SVG Export Plug-In . SVG Version: 6.00 Build 0)  -->
<svg version="1.1" id="Layer_1" xmlns="http://www.w3.org/2000/svg" xmlns:xlink="http://www.w3.org/1999/xlink" x="0px" y="0px"
	 viewBox="0 0 32 32" enable-background="new 0 0 32 32" xml:space="preserve">
<rect fill="#FFFFFF" width="32" height="32"/>
<g id="Twitter">
	<path fill="#171717" d="M21,5.7c-0.5,0.8-1.3,1.5-2.1,2.1c0,0.2,0,0.4,0,0.5c0,2.9-1.1,5.7-3,7.9c-2.2,2.5-5.4,3.9-8.6,3.8
		C5,20,2.8,19.4,1,18.2c0.4,0,0.6,0,1,0c1.8,0,3.6-0.6,5.1-1.8c-0.9,0-1.7-0.3-2.4-0.8c-0.7-0.5-1.2-1.2-1.5-2c0.2,0,0.5,0,0.7,0.1
		c0.4,0,0.7,0,1.1-0.1c-1.9-0.5-3.2-2.2-3.2-4.1V9.4C2.5,9.7,3.1,9.9,3.7,10C2.5,9.3,1.9,8,1.9,6.5c0-0.7,0.2-1.5,0.5-2.1
		c2,2.6,5.1,4.2,8.5,4.3c-0.1-0.3-0.1-0.6-0.1-0.9c0-2.3,1.8-4.1,4.1-4.1l0,0c1.2,0,2.3,0.5,3,1.3c0.9-0.2,1.8-0.5,2.6-1
		c-0.3,1-0.9,1.8-1.8,2.3C19.5,6.3,20.3,6,21,5.7z"/>
</g>
</svg>
